# xmcd
#
# Track frame offsets:
#	150
#	18937
#	37132
#	58675
#	80357
#	98240
#	119857
#	146785
#	169772
#	193755
#
# Disc length: 2934 seconds
#
# Revision: 1
# Processed by: cddbd v1.5.1PL0 Copyright (c) Steve Scherf et al.
# Submitted via: CDex 1.50Beta5
#
DISCID=900b740a
DTITLE=Be-B - Be-BIII
DYEAR=1996
DGENRE=Rock
TTITLE0=Fly for Me
TTITLE1=DAYBREAK GIRL
TTITLE2=逢えない夜を抱きしめて
TTITLE3=Be My Self
TTITLE4=遙くへ…
TTITLE5=Love Is All
TTITLE6=Remember
TTITLE7=MISSING IN THE RAIN
TTITLE8=夢みることに疲れたなら
TTITLE9=ミニローズ
EXTD=
EXTT0=
EXTT1=
EXTT2=
EXTT3=
EXTT4=
EXTT5=
EXTT6=
EXTT7=
EXTT8=
EXTT9=
PLAYORDER=
